<svg xmlns="http://www.w3.org/2000/svg" version="1.1" xmlns:xlink="http://www.w3.org/1999/xlink" xmlns:svgjs="http://svgjs.dev/svgjs" width="1440" height="560" preserveAspectRatio="none" viewBox="0 0 1440 560"><g mask="url(&quot;#SvgjsMask1018&quot;)" fill="none"><rect width="1440" height="560" x="0" y="0" fill="rgba(40, 125, 213, 1)"></rect><path d="M0,575.92C106.556,558.027,149.806,429.414,228.144,354.999C289.116,297.081,369.029,260.734,409.441,186.985C451.579,110.087,455.442,21.652,458.822,-65.969C462.872,-170.953,490.119,-286.626,431.065,-373.52C371.005,-461.895,257.16,-498.828,151.953,-517.505C53.306,-535.017,-45.331,-509.24,-139.412,-474.793C-228.578,-442.146,-317.766,-400.673,-374.697,-324.677C-429.824,-251.089,-421.493,-152.613,-446.955,-64.262C-477.476,41.643,-573.201,141.41,-539.24,246.262C-505.536,350.322,-376.665,383.834,-283.341,440.887C-192.231,496.586,-105.313,593.604,0,575.92" fill="#1a518b"></path><path d="M1440 1214.266C1559.672 1200.147 1666.983 1128.03 1747.343 1038.2350000000001 1817.242 960.129 1818.58 847.8620000000001 1855.646 749.819 1889.6390000000001 659.904 1963.2 581.653 1956.201 485.782 1949.054 387.877 1871.031 315.096 1817.886 232.56 1755.248 135.281 1725.174-1.4909999999999854 1616.638-41.57299999999998 1508.295-81.58399999999995 1387.762-18.787000000000035 1286.201 36.20799999999997 1197.77 84.09300000000002 1156.063 182.08499999999998 1080.679 248.64600000000002 989.4010000000001 329.241 843.052 354.674 797.591 467.63599999999997 751.005 583.394 796.139 716.88 846.252 831.156 896.867 946.577 976.326 1048.376 1082.226 1116.7069999999999 1188.241 1185.112 1314.701 1229.049 1440 1214.266" fill="#71aae4"></path></g><defs><mask id="SvgjsMask1018"><rect width="1440" height="560" fill="#ffffff"></rect></mask></defs></svg>